<?xml version="1.0" encoding="utf-8"?>
<!-- Generator: Adobe Illustrator 24.0.0, SVG Export Plug-In . SVG Version: 6.00 Build 0)  -->
<svg version="1.1" id="Calque_1" xmlns="http://www.w3.org/2000/svg" xmlns:xlink="http://www.w3.org/1999/xlink" x="0px" y="0px"
	 viewBox="0 0 2157 2500" style="enable-background:new 0 0 2157 2500;" xml:space="preserve">
<style type="text/css">
	.st0{fill:#010101;}
	.st1{fill:#29363C;}
	.st2{fill:#E9EFEF;}
	.st3{fill:#0A1825;}
	.st4{opacity:0.3;fill:#010101;enable-background:new    ;}
	.st5{fill:none;}
	.st6{fill:#F0EFEF;}
	.st7{opacity:0.4;fill:#010101;enable-background:new    ;}
	.st8{stroke:#010101;stroke-width:10.8638;stroke-linejoin:round;stroke-miterlimit:68.4979;}
</style>
<path class="st0" d="M344.6,1100.7c-71.2,33.5-259.5,184.2-295.8,228.8c-37.7,44.6-48.8-25.1-9.8-140.9
	c30.7-93.5,108.8-220.4,240-329.3c76.7-62.8,245.6-153.5,348.8-206.5c20.9-11.2,291.6-125.6,533-182.8c20.9-5.6-25.1,34.9-32.1,57.2
	c-36.3,106-760.4,560.9-760.4,560.9L344.6,1100.7z M1364.5,2380.1c12.6,75.3,1.4,80.9-76.7,90.7c-78.1,9.8-135.3-19.5-156.3-39.1
	c-20.9-19.5-25.1-62.8-4.2-101.8c12.6-25.1,25.1-33.5,32.1-64.2c7-29.3,12.6-36.3,18.1-47.4c5.6-9.8,7-19.5,8.4-87.9
	c1.4-68.4,0-196.7,7-251.1c7-55.8,248.4,25.1,248.4,25.1s-57.2,142.3-72.6,177.2c-15.4,34.9-14,101.8-14,115.8s-5.6,41.9-9.8,43.2
	c-4.2,1.4,14,37.7,5.6,58.6C1345,2318.7,1363.1,2369,1364.5,2380.1L1364.5,2380.1z M1456.6,246.8c-8.4-53,0-157.7,11.2-174.4
	c34.9-47.4,219-53,258.1,2.8c16.7,25.1,15.3,83.7,12.6,121.4c-2.8,37.7-12.6,118.6-14,145.1c-1.4,19.5-203.7,50.2-248.3-2.8
	C1463.6,325,1456.6,246.8,1456.6,246.8L1456.6,246.8z M1866.8,2244.8c85.1,61.4,150.7,72.6,193.9,94.9
	c43.2,22.3,32.1,65.6-40.5,78.1c-58.6,11.2-150.7-11.2-212.1-11.2c-61.4,0-198.1,7-234.4-18.1c-41.9-29.3-23.7-83.7-23.7-83.7
	c11.2-30.7,39.1-99.1,30.7-154.9c-8.4-55.8-19.5-86.5-40.5-138.1c-20.9-51.6-36.3-178.6-16.7-185.6c19.5-7,13.9,0,39.1,5.6
	c25.1,5.6,53,14,107.4,14c54.4,0,114.4-8.4,135.3-12.6c20.9-4.2,37.7-8.4,30.7,34.9c-7,43.2-27.9,124.2-29.3,187
	c-1.4,62.8-1.4,135.3,2.8,147.9C1813.8,2215.5,1844.5,2229.4,1866.8,2244.8L1866.8,2244.8z"/>
<path class="st1" d="M1568.2,386.4c-153.5,132.6-450.7,168.8-891.5,339c-113,43.2-414.4,173-486.9,308.3
	c244.2-140.9,334.9,53,354.4,252.5c18.1,187,111.6,284.6,351.6,279c247-5.6,322.3,138.1,390.7,307
	c132.5-646,344.6-771.6,481.3-881.8C2057.9,754.7,1700.8,338.9,1568.2,386.4L1568.2,386.4z"/>
<path class="st1" d="M1568.2,386.4C1199.9,514.7,835.7,546.8,407.4,810.5c-101.8,62.8-316.7,205.1-358.6,477.2
	c156.3-173,517.6-390.7,959.9-528.8c223.2-69.8,386.5-115.8,584.6-192.5C1579.4,477,1579.4,442.2,1568.2,386.4L1568.2,386.4z"/>
<path class="st0" d="M2038.4,1150.9c0,0-26.5,90.7-79.5,120c0,0-39.1,14-117.2-29.3c-22.3-12.6-39.1-55.8-37.7-69.8
	c1.4-33.5,22.3-48.8,22.3-48.8s22.3-37.7,48.8-36.3c26.5,1.4,71.2,5.6,85.1-7C1972.8,1065.8,2041.2,1104.9,2038.4,1150.9
	L2038.4,1150.9z M1469.2,273.3c0,0-5.6,71.2-15.3,115.8c-1.4,8.4-43.2,12.6-74,25.1c58.6,167.4,411.6,166,457.6,83.7
	c-22.3-15.3-67-39.1-87.9-47.4c-20.9-8.4-19.5-7-20.9-46c-1.4-39.1-4.2-111.6-7-131.2C1718.9,253.8,1502.6,253.8,1469.2,273.3
	L1469.2,273.3z"/>
<path class="st2" d="M1483.1,273.3c0,0,0,40.5-4.2,79.5c-1.4,18.1-2.8,29.3-5.6,43.2c-1.4,8.4,47.4,41.9,61.4,115.8
	c67,149.3,221.8,75.3,286,4.2c-22.3-15.4-58.6-36.3-100.5-53c-20.9-8.4-11.2-26.5-12.6-65.6c-1.4-39.1-7-96.3-9.8-117.2
	C1695.2,259.4,1516.6,253.8,1483.1,273.3L1483.1,273.3z"/>
<g>
	<path class="st0" d="M1469.2,273.3c0,0-1.4,25.1-5.6,54.4c18.1,18.1,41.9,43.2,60,58.6c12.6,11.2,43.2,9.8,71.2,9.8
		c25.1,0,47.4,2.8,57.2-2.8c22.3-11.2,54.4-39.1,72.6-60c-1.4-25.1-2.8-48.8-4.2-60C1718.9,253.8,1502.6,253.8,1469.2,273.3z"/>
	<path class="st0" d="M1596.1,379.4c-16.7,0-36.3-1.4-51.6-4.2c-7-1.4-14-5.6-19.5-8.4c-9.8-7-19.5-15.3-30.7-23.7
		c-22.3-16.7-23.7-26.5-23.7-30.7c9.8-87.9-2.8-161.8-2.8-161.8s-9.8-37.7,43.2-47.4c53-9.8,85.1-11.2,85.1-11.2s33.5,0,85.1,11.2
		c53,9.8,43.2,47.4,43.2,47.4s-12.6,73.9-2.8,161.8c0,4.2-1.4,13.9-23.7,30.7c-19.5,14-34.9,29.3-50.2,32.1
		C1632.4,378,1612.9,379.4,1596.1,379.4z"/>
	<path class="st0" d="M1596.1,55.7c-92.1,0-110.2,25.1-136.7,53c-5.6,7-1.4,48.8,8.4,138.1h12.6c0,0-8.4-25.1-7-54.4
		c1.4-29.3,7-27.9,2.8-34.9c-5.6-8.4-16.7-22.3,8.4-36.3c25.1-14,64.2,11.2,111.6,12.6c47.4-1.4,87.9-26.5,113-12.6
		c25.1,13.9,14,27.9,8.4,36.3c-5.6,8.4,1.4,5.6,2.8,34.9c1.4,29.3-7,54.4-7,54.4h12.6c8.4-89.3,14-128.4,9.8-135.3
		C1711.9,80.8,1688.2,57.1,1596.1,55.7z M2038.4,1155.1c0,0-26.5,85.1-78.1,114.4c-11.2-5.6-9.8-13.9-19.5-26.5
		c-2.8-4.2-12.6-7-16.7-11.2c-4.2-4.2-2.8-11.2-9.8-16.7c-5.6-5.6-9.8-1.4-15.4-5.6c-5.6-5.6-7-12.6-11.2-16.7
		c-2.8-2.8-14-4.2-16.7-7c-7-7-68.4-19.5-65.6-33.5c5.6-20.9,16.7-36.3,16.7-36.3s26.5-39.1,53-37.7c26.5,1.4,51.6,7,65.6-5.6
		C1956.1,1058.8,2042.6,1110.5,2038.4,1155.1L2038.4,1155.1z"/>
	<path class="st0" d="M1857,538.4c0,0,87.9-20.9,147.9,36.3c60,58.6,55.8,131.1,37.7,175.8c15.3,18.1,43.2,68.4,22.3,128.4
		c92.1,78.1,51.6,198.1-30.7,277.6c0,0-19.5-72.6-97.7-76.7c2.8-27.9-72.6-50.2-37.7-122.8c-53-12.6-51.6-48.8-60-93.5
		C1831.9,818.9,1857,538.4,1857,538.4L1857,538.4z"/>
</g>
<path class="st2" d="M1824.9,577.5c0,0,101.8-51.6,161.8,7c60,58.6,43.2,122.8,25.1,167.4c15.3,18.1,51.6,69.8,29.3,131.1
	c-4.2,14-34.9,14-57.2,50.2c55.8-32.1,90.7-23.7,103.2,16.7c19.5,62.8-23.7,138.1-61.4,180c0-1.4-1.4-2.8-1.4-4.2
	c-5.6,20.9-12.6,61.4-54.4,106c-20.9,22.3-37.7,19.5-61.4,14c-27.9-7-37.7-19.5-76.7-40.5c-22.3-12.6-9.8-27.9-9.8-40.5
	c0-2.8,2.8-7,7-12.6c2.8-7,11.2-18.1,23.7-30.7c0,0,18.1-25.1,44.7-23.7c26.5,1.4,54.4-4.2,61.4-11.2c0-48.8-55.8-50.2-36.3-133.9
	c1.4-4.2,8.4-11.2,30.7-14c-33.5-7-48.8-8.4-72.6-30.7c-16.7-15.3-29.3-34.9-33.5-60C1838.9,804.9,1824.9,577.5,1824.9,577.5
	L1824.9,577.5z"/>
<path class="st0" d="M1530.5,489.6c-8.4-11.2-51.6-67-133.9-89.3c-23.7-7-39.1,12.6-62.8,26.5c-7-4.2-37.7-18.1-54.4-8.4
	c-16.7,9.8-27.9,19.5-44.6,26.5c-8.4-4.2-30.7-4.2-48.8,2.8c-18.1,5.6-46,18.1-72.6,54.4c-16.7,60,295.8,15.3,295.8,15.3
	L1530.5,489.6z"/>
<path class="st1" d="M1533.3,489.6c-44.7-15.4-37.7-67-136.7-75.3c-19.5-1.4-32.1,13.9-46,23.7c7,7,14,18.1,18.1,29.3
	c-12.6-13.9-34.9-32.1-57.2-36.3c-20.9-4.2-34.9,11.2-57.2,22.3c4.2,4.2,8.4,11.2,13.9,19.5c-19.5-12.6-33.5-16.7-60-7
	c-18.1,5.6-53,20.9-79.5,58.6c-16.7,60,281.8-7,281.8-7L1533.3,489.6z"/>
<path class="st0" d="M1795.6,511.9c0,0,0-15.4-1.4-29.3c0-2.8-11.2-9.8-11.2-12.6l-2.8-2.8c0,0,22.3-12.6,39.1-5.6
	c18.1,5.6,27.9,29.3,27.9,29.3c32.1-11.2,34.9,1.4,50.2,18.1c33.5-7,37.7,5.6,58.6,36.3c0,0-25.1-4.2-73.9,4.2
	C1834.7,556.6,1795.6,510.5,1795.6,511.9L1795.6,511.9z"/>
<path class="st1" d="M1790.1,505c0,0,8.4-7,5.6-8.4c15.3-8.4,36.3-18.1,46,8.4c32.1-11.2,36.3,4.2,51.6,20.9
	c39.1-18.1,41.9,4.2,44.6,13.9c-12.6,0-30.7,1.4-55.8,4.2C1834.7,551,1788.7,503.6,1790.1,505z"/>
<path class="st0" d="M1315.7,470.1c0,0,79.5,27.9,146.5,23.7c67-5.6,181.4-11.2,242.8,25.1c0,0,62.8-22.3,121.4-7
	c58.6,15.3,166,115.8,133.9,221.8c-2.8,7-20.9,18.1-41.9,25.1c0,0,11.2,47.4-8.4,86.5c-19.5,37.7-62.8,110.2-64.2,210.7
	c-1.4,16.7-4.2,51.6-7,68.4c-108.8-4.2-276.3-44.6-440.9-41.9c1.4-18.1,2.8-29.3,4.2-47.4h4.2c-8.4-46-11.2-69.8-19.5-104.6
	c-53-33.5-108.8-72.5-156.3-146.5C1184.5,710,1315.7,470.1,1315.7,470.1L1315.7,470.1z M1854.2,1223.5c0,0,86.5,309.7-15.3,439.5
	c0,0,15.3,60-19.5,124.2c-5.6,27.9-12.6,53-16.7,80.9c-18.1,115.8-48.8,164.6-57.2,350.2l-83.7-1.4c0,0-9.8-133.9-39.1-205.1
	c-16.7-40.5-82.3-94.9-79.5-149.3c2.8-41.9,11.2-76.7,82.3-132.6c5.6-80.9-75.3-157.7-62.8-459L1854.2,1223.5z"/>
<path class="st2" d="M1829.1,1210.9c22.3,142.3,73.9,353-19.5,456.2c5.5,26.2,6,53.2,1.4,79.5c-2.8,16.7-8.4,34.9-15.3,54.4
	c-14,33.5-19.5,82.3-23.7,111.6c-18.1,115.8-18.1,121.4-26.5,307l-83.7-1.4c0,0-9.8-133.9-39.1-205.1
	c-16.7-40.5-51.6-75.3-54.4-129.8c-2.8-41.9,26.5-125.6,96.3-122.8c-4.2-168.8-82.3-135.3-103.2-486.9L1829.1,1210.9z M1315.7,470.1
	c0,0,30.7,9.8,64.2,12.6c33.5,2.8,69.8,0,101.8-1.4c67-5.6,161.8-12.6,224.6,23.7c0,0,34.9-11.2,72.6-8.4
	c16.7,1.4,33.5,15.4,53,20.9c61.4,15.3,120,117.2,93.5,209.3c-2.8,7-22.3,0-44.6,7c4.2,19.5,7,64.2-15.4,111.6
	c-23.7,47.4-54.4,108.8-48.8,226c-146.5-7-212.1-16.7-357.2-23.7c-12.6-51.6-20.9-103.2-22.3-129.8c19.5-9.8,30.7-18.1,46-34.9
	c-41.9,7-58.6,4.2-83.7-9.8c-25.1-14-69.8-58.6-92.1-87.9c-2.8-2.8-18.1,43.2-53,44.6c-12.6-18.1,40.5-69.8,30.7-89.3
	C1250.1,669.6,1315.7,470.1,1315.7,470.1L1315.7,470.1z"/>
<path class="st0" d="M1840.3,1095.1c0,0,2.8,50.2,2.8,62.8c0,14,11.2,55.8,12.6,75.3c-15.3,26.5-82.3,86.5-203.7,108.8
	c-120,25.1-279-163.2-279-163.2c4.2-18.1,18.1-71.2,27.9-99.1c1.4-2.8,4.2-9.8,4.2-12.6C1417.5,1049.1,1840.3,1095.1,1840.3,1095.1z
	"/>
<path class="st2" d="M1809.6,1099.3c0,34.9,5.6,60,9.8,82.3c7,40.5,18.1,67,18.1,93.5c0,80.9-106,67-195.3,69.8
	c-120,25.1-221.8-163.2-221.8-163.2c8.4-32.1,14-68.4,26.5-99.1c1.4-16.7,4.2-37.7,5.6-47.4c170.2,0,290.2,9.8,360,16.7
	C1815.2,1067.2,1812.4,1093.7,1809.6,1099.3L1809.6,1099.3z"/>
<path class="st0" d="M1675.6,1279.3c0,0-73.9-164.6-295.8-115.8c-53,149.3-124.2,320.9-78.1,506.5c-46,62.8-99.1,97.7-99.1,213.5
	c0,115.8,5.6,135.3,5.6,135.3l163.2,8.4c0,0,53-68.4,73.9-142.3c5.6-20.9,11.2-58.6,7-101.8c5.6-8.4,29.3-27.9,32.1-65.6
	c0,0,79.5-41.9,125.6-143.7C1653.3,1481.6,1642.2,1402.1,1675.6,1279.3L1675.6,1279.3z"/>
<path class="st2" d="M1675.6,1279.3c-4.2-15.3-60-166-266.5-121.4c-121.4,323.7-76.7,457.6-58.6,516.2
	c-82.3,104.6-120,127-103.2,339h108.8c50.2-79.5,61.4-108.8,64.2-213.5c0-4.2-15.3,8.4-26.5,22.3c8.4-43.2,32.1-51.6,50.2-78.1
	c8.4-11.2,15.3-27.9,15.3-50.2c97.7-65.6,133.9-147.9,154.9-233C1631,1402.1,1650.5,1305.8,1675.6,1279.3L1675.6,1279.3z"/>
<g>
	<path class="st0" d="M1331,1054.7c0,0,37.7,1.4,71.2,12.6c32.1,11.2,32.1,18.1,44.6,32.1c12.6,14,43.2,34.9,37.7,55.8
		c-2.8,11.2-9.8,14-19.5,23.7c-4.2,4.2-34.9,37.7-41.9,41.9c-4.2,2.8-9.8,7-14,9.8l-20.9,14c-14,7-23.7,11.2-39.1,9.8
		c0,0-34.9-1.4-57.2-25.1c0,0-2.8-11.2,2.8-16.7c0,0-29.3-25.1-37.7-41.9c-8.4-16.7-8.4-40.5-2.8-53
		C1257.1,1104.9,1311.5,1070,1331,1054.7L1331,1054.7z M1365.9,2412.2l-4.2,34.9c0,0-12.6,15.3-106,14c-94.9-1.4-120-30.7-128.4-46
		l-5.6-36.3c0,0,18.1-26.5,22.3-26.5c30.7,2.8,135.3,44.6,207.9,55.8C1358.9,2408,1360.3,2410.8,1365.9,2412.2L1365.9,2412.2z
		 M1568.2,2341.1c0,15.3-1.4,15.3-1.4,30.7c16.7,12.6,58.6,19.5,138.1,18.1c115.8-2.8,223.2,34.9,354.4,12.6l1.4-25.1l-12.6-1.4
		l-464.6-37.7L1568.2,2341.1z"/>
	<path class="st0" d="M1670.1,2389.9h34.9c75.3-2.8,146.5,14,223.2,18.1c40.5-1.4,90.7-11.2,86.5-40.5l-396.2-33.5
		C1594.7,2360.6,1612.9,2382.9,1670.1,2389.9L1670.1,2389.9z M1215.2,1802.5c12.6,8.4,97.7,58.6,235.8,51.6
		c-2.8,26.5-1.4,78.1-62.8,168.8c-30.7,44.6-57.2,122.8-62.8,221.8c1.4,22.3,14,41.9-2.8,71.2c5.6,18.1,27.9,54.4,39.1,76.7
		c11.2,22.3,16.7,47.4-57.2,48.8c-75.3,1.4-196.7-7-180-65.6c8.4-30.7,32.1-62.8,34.9-75.3c2.8-12.6,2.8-50.2,26.5-75.3
		c20.9-69.8,14-136.7,9.8-199.5C1188.7,1960.2,1187.3,1855.5,1215.2,1802.5L1215.2,1802.5z M1345,665.4
		c99.1-132.6,15.3-238.6-143.7-206.5c-64.2,12.6-128.4,57.2-132.6,138.1c-20.9,2.8-68.4,5.6-92.1,92.1c-18.1,67-27.9,79.5-60,113
		c-20.9,23.7,1.4,72.6,16.7,107.4c51.6,120,210.7,131.1,318.1,221.8c36.3-9.8,73.9-50.2,85.1-76.7
		c-90.7-107.4-71.2-149.3-107.4-205.1C1268.2,835.6,1357.5,781.2,1345,665.4L1345,665.4z"/>
</g>
<path class="st2" d="M1325.4,657c5.6-8.4,15.3-26.5,19.5-33.5c1.4-1.4,16.7,25.1,18.1,23.7c37.7-61.4,47.4-150.7,4.2-159.1
	c-9.8-1.4-27.9-5.6-43.2-11.2c-27.9-9.8-53-9.8-97.7-1.4c-61.4,11.2-122.8,55.8-122.8,120c0,4.2,43.2,16.7,55.8,68.4
	c-20.9-29.3-57.2-61.4-100.5-33.5c-46,29.3-22.3,96.3-83.7,166c-20.9,23.7-18.1,51.6,4.2,107.4c36.3,87.9,207.9,135.3,301.4,219
	c22.3-9.8,37.7-32.1,48.8-48.8c-62.8-65.6-87.9-127-106-171.6c-22.3-51.6-47.4-80.9-96.3-120c25.1,9.8,44.7,19.5,55.8,27.9
	c12.6,8.4,30.7,9.8,47.4,4.2C1290.6,793.8,1322.7,710,1325.4,657L1325.4,657z"/>
<path class="st0" d="M1932.4,679.4c-4.2,53-43.2,26.5-64.2,16.7c-41.9-18.1-83.7-30.7-132.6-30.7s-111.6,4.2-166,18.1
	c-75.3,20.9-97.7,19.5-131.2,2.8c-33.5-18.1-92.1-62.8-92.1-62.8s-1.4,14,12.6,32.1c18.1,22.3,58.6,50.2,113,68.4
	c26.5,8.4,47.4,2.8,71.2-2.8c124.2-30.7,255.3-36.3,365.5,30.7c5.6,2.8,25.1-5.6,33.5-18.1C1953.3,715.6,1932.4,679.4,1932.4,679.4z
	"/>
<path class="st3" d="M1297.5,1210.9c11.2,7,25.1,11.2,40.5,23.7c0,0-12.6,0-18.1-5.6C1312.9,1224.9,1298.9,1212.3,1297.5,1210.9z"/>
<path class="st2" d="M1700.8,104.5c-4.2-12.6-34.9-34.9-106-34.9c-76.7,0-99.1,23.7-100.5,36.3c0,4.2-5.6,48.8-7,67
	c0,0,0,22.3,1.4,55.8c1.4,22.3,7,34.9,9.8,64.2c2.8,30.7,11.2,50.2,26.5,75.3c7,4.2,12.6,8.4,19.5,9.8c27.9,5.6,76.7,7,103.2,0
	c15.3-4.2,34.9-30.7,39.1-54.4c5.6-29.3,11.2-50.2,12.6-68.4c2.8-18.1,4.2-58.6,5.6-69.8C1709.1,154.8,1702.2,107.3,1700.8,104.5
	L1700.8,104.5z"/>
<path class="st0" d="M1554.3,1829c0,0,74,32.1,256.7,4.2c0,0-51.6,259.5-27.9,389.3c0,0,23.7,33.5,199.5,97.7
	c0,0,78.1,19.5,75.3,58.6c0,0,2.8,8.4-92.1,5.6c-94.9-2.8-184.2-19.5-247-19.5c-62.8,0-129.8,2.8-140.9-15.3
	c-12.6-16.7,2.8-60,20.9-85.1c19.5-26.5,14-46,12.6-93.5C1607.3,2046.7,1512.4,1918.3,1554.3,1829L1554.3,1829z"/>
<path class="st1" d="M1538.9,1852.7c-9.8,14,1.4,67,15.3,118.6c14,51.6,44.7,82.3,51.6,167.4c7,83.7,8.4,94.9-15.4,143.7
	c-23.7,48.8-30.7,93.5,51.6,94.9s127-1.4,210.7,11.2c83.7,12.6,113,16.7,159.1,9.8c46-7,55.8-22.3,36.3-36.3
	c-19.5-14-100.5-29.3-135.3-57.2c-33.5-25.1-128.4-67-129.7-78.1c-4.2-37.7-5.6-174.4,1.4-219c7-44.7,16.7-108.8,19.5-125.6
	c2.8-16.7,16.7-33.5-7-27.9c-23.7,5.6-113,18.1-180,14C1550.1,1863.9,1543.1,1848.5,1538.9,1852.7L1538.9,1852.7z"/>
<path class="st4" d="M1586.4,2283.9c23.7,11.2,58.6,19.5,85.1,19.5c0,0-9.8,46,5.6,73.9c15.3,27.9-111.6,11.2-111.6,11.2l-5.6-99.1
	L1586.4,2283.9z M1956.1,2403.8c22.3-7,37.7-32.1,19.5-55.8c-19.5-23.7-36.3-27.9-11.2-29.3c25.1-1.4,117.2,54.4,117.2,54.4
	l-47.4,43.2L1956.1,2403.8z M1534.7,1907.1c32.1,11.2,80.9,14,122.8,12.6c41.9-1.4,104.6-7,145.1-20.9c40.5-14,23.7,15.3,23.7,15.3
	L1804,1935c0,0-53,20.9-139.5,19.5c-101.8-1.4-132.6-12.6-132.6-12.6L1534.7,1907.1z M1537.5,1976.9c32.1,11.2,80.9,14,122.8,12.6
	c41.9-1.4,97.7-1.4,138.1-16.7c16.7-5.6,7,18.1,7,18.1l-7,12.6c0,0-54.4,19.5-139.5,18.1c-101.8-1.4-120-9.8-120-9.8L1537.5,1976.9z
	"/>
<path class="st5" d="M1554.3,1829c0,0,121.4,43.2,258.1,14c0,0-53,249.7-29.3,378.1c0,0,23.7,33.5,199.5,97.7
	c0,0,78.1,19.5,75.3,58.6c0,0,2.8,8.4-92.1,5.6c-94.9-2.8-184.2-19.5-247-19.5c-62.8,0-129.8,2.8-140.9-15.3
	c-12.6-16.7,2.8-60,20.9-85.1c19.5-26.5,14-46,12.6-93.5C1607.3,2046.7,1512.4,1918.3,1554.3,1829L1554.3,1829z"/>
<path class="st5" d="M1554.3,1829c0,0,121.4,41.9,258.1,12.6c0,0-53,251.1-29.3,379.5c0,0,23.7,33.5,199.5,97.7
	c0,0,78.1,19.5,75.3,58.6c0,0,2.8,8.4-92.1,5.6c-94.9-2.8-185.6-29.3-247-19.5c-65.6,11.2-129.8,7-140.9-15.3
	c-9.8-18.1,2.8-60,20.9-85.1c19.5-26.5,14-46,12.6-93.5C1607.3,2046.7,1512.4,1918.3,1554.3,1829L1554.3,1829z"/>
<path class="st0" d="M1445.4,998.9c0,9.8,108.8,64.2,168.8,75.3c60,11.2,185.6,0,205.1-4.2l-2.8,19.5c0,0-149.3,22.3-263.7-8.4
	c-114.4-30.7-101.8-37.7-101.8-37.7L1445.4,998.9z"/>
<path class="st2" d="M1212.4,2189c16.7,8.4,76.7,23.7,115.8,15.4c5.6-1.4,0-96.3,15.4-139.5c22.3-60,58.6-108.8,75.3-214.9
	c-58.6-5.6-125.6-20.9-160.4-32.1C1213.8,1954.6,1229.2,2071.8,1212.4,2189L1212.4,2189z M1305.9,2276.9c9.8,2.8,16.7,13.9,19.5,7
	c5.6-12.6-9.8-36.3-11.2-53v-1.4c-12.6-11.2-97.7-12.6-92.1-7c-9.8,18.1-25.1,15.4-30.7,51.6c-2.8,18.1,19.5,2.8,40.5,1.4
	c-37.7,25.1-80.9,57.2-87.9,85.1c-8.4,39.1,5.6,50.2,47.4,71.2c36.3,8.4,79.5,9.8,113,8.4c37.7-7,44.7-25.1,33.5-50.2
	C1321.3,2352.2,1310.1,2303.4,1305.9,2276.9L1305.9,2276.9z"/>
<path class="st0" d="M1321.3,464.5c46,26.5,109.5,16.9,134.3,17.7c5.6,0,58.8-6.5,61.6-5.1c5.6,1.4,7.9,2.8,7.9,2.8
	s-20.9,11.2-68.4,13.9c-44.6,2.8-97.7,0-127-13.9C1294.8,464.5,1321.3,464.5,1321.3,464.5L1321.3,464.5z M1795.6,491
	c8.4,5.6,62.8,26.5,86.5,51.6c20.9,22.3,9.8,20.9,5.6,15.4c-5.6-7-48.8-36.3-65.6-43.2c-16.7-7-37.7-19.5-37.7-22.3
	S1795.6,491,1795.6,491L1795.6,491z"/>
<path class="st6" d="M1314.3,1070c40.5-2.8,82.3,7,108.8,34.9c14,14,36.3,29.3,33.5,43.2c0,4.2-8.4,15.4-15.3,23.7
	c-4.2,5.6-16.7,18.1-20.9,22.3c-5.6,4.2-25.1,19.5-29.3,22.3c-4.2,2.8-9.8,9.8-14,11.2c-13.9,7-29.3,1.4-43.2-5.6
	c-13.9-7,2.8-8.4-12.6-19.5c-37.7-26.5-58.6-44.7-43.2-96.3C1279.4,1096.5,1294.8,1085.4,1314.3,1070L1314.3,1070z"/>
<path class="st7" d="M958.5,750.5c-125.6,50.2-445.1,209.3-535.8,258.1c75.3,47.4,110.2,161.8,121.4,277.6
	c1.4,11.2,2.8,20.9,4.2,32.1c1.4,9.8,2.8,16.7,4.2,20.9c0,1.4,0,4.2,1.4,5.6c82.3-224.6,376.7-461.8,387.9-480
	c5.6-8.4-7-44.6,12.6-79.5C979.4,740.7,1028.3,721.2,958.5,750.5L958.5,750.5z M1257.1,1803.9c64.2-128.4,65.6-251.1,64.2-394.8
	c0-60,43.2-145.1,20.9-121.4c-83.7,93.5-294.4,269.3-446.5,279C1109.2,1559.7,1192.9,1667.2,1257.1,1803.9z"/>
<path class="st0" d="M300,1127.2C379.5,1070,791.1,851,890.1,820.3c99.1-32.1,68.4-69.8,68.4-69.8s-401.8,173-641.8,322.3"/>
<path class="st7" d="M1471.9,724c-32.1-12.6-57.2,25.1-48.8,61.4c8.4,36.3,83.7,76.7,79.5,209.3c-2.8,108.8-26.5,153.5-26.5,153.5
	l-53-67c0,0-8.4-150.7-26.5-173c-18.1-22.3-75.3-62.8-97.7-83.7c-22.3-20.9,25.1-48.8,22.3-87.9c-2.8-37.7,23.7-113,23.7-113
	L1471.9,724z M1665.9,1318.4c-2.8,104.6,20.9,259.5,30.7,333.5c9.8,73.9,22.3,79.5,0,113c-22.3,32.1-51.6,85.1-51.6,85.1l-96.3-8.4
	c0,0,76.7-97.7,80.9-115.8c4.2-18.1-39.1-156.3-39.1-156.3L1665.9,1318.4z M1480.3,341.7c19.5,43.2,43.2,62.8,80.9,75.3
	c22.3,8.4,110.2,19.5,145.1-19.5c15.3-18.1,5.6-67,5.6-67l-79.5,64.2L1525,375.2l-12.6-32.1L1480.3,341.7z"/>
<path class="st8" d="M1488.7,438c36.3,23.7,127,46,152.1,50.2c25.1,5.6,65.6-26.5,85.1-34.9c20.9-9.8,57.2-15.4,99.1,22.3
	c4.2,4.2-9.8,22.3-9.8,22.3c-1.4-1.4-9.8-1.4-20.9-7c-11.2-5.6-20.9-9.8-37.7-8.4c-69.8,8.4-80.9,32.1-142.3,18.1
	c-61.4-14-76.7-25.1-136.7-22.3"/>
<path class="st1" d="M1474.2,440.7c46,19.5,137.3,42,162.4,47.6c25.1,5.6,65.6-19.5,85.1-32.1c34.9-22.3,79.5-4.2,100.5,19.5
	c13.9,15.3,19.5,25.1,19.5,29.3c0,5.6-16.7,0-16.7,0c-9.8-4.2-20.9-5.6-29.3-11.2c-11.2-5.6-22.3-13.9-39.1-12.6
	c-69.8,8.4-83.7,32.1-143.7,18.1s-75.4-23.3-139.6-19.2"/>
<path class="st0" d="M1259.9,1745.3c-2.8-2.8,2.8-5.6,0-5.6c-18.1,0-43.2-14-57.2-33.5c-60-86.5-147.9-143.7-306.9-139.5
	c-238.6,5.6-333.5-92.1-351.6-279c-9.8-101.8-37.7-200.9-94.9-256.7l-33.5,20.9c64.2,55.8,85.1,146.5,99.1,270.7
	c22.3,187,173,273.5,348.8,276.3c182.8,2.8,248.3,40.5,316.7,132.6c22.3,29.3,47.4,39.1,67,43.2L1259.9,1745.3z"/>
<path class="st7" d="M1907.3,848.2c4.2,20.9,15.3,61.4,37.7,80.9c9.8,9.8,11.2,12.6,2.8,12.6c-8.4,0-69.8-2.8-69.8-2.8l-16.7-29.3
	L1907.3,848.2z"/>
</svg>
