<?xml version="1.0" encoding="utf-8"?>
<!-- Generator: Adobe Illustrator 24.0.0, SVG Export Plug-In . SVG Version: 6.00 Build 0)  -->
<svg version="1.1" id="Calque_1" xmlns="http://www.w3.org/2000/svg" xmlns:xlink="http://www.w3.org/1999/xlink" x="0px" y="0px"
	 viewBox="0 0 256 290.2" style="enable-background:new 0 0 256 290.2;" xml:space="preserve">
<style type="text/css">
	.st0{fill:#171F22;}
	.st1{fill:#29363C;}
	.st2{fill:#E9EFEF;}
</style>
<g>
	<path class="st0" d="M255.6,0l-23.2,260.4l-104.5,29L23.7,260.4L0.4,0H255.6L255.6,0z"/>
	<path class="st1" d="M128,267.2l84.4-23.4l19.9-222.5H128V267.2L128,267.2z"/>
	<path class="st2" d="M82.8,85.2H128V53.2H47.9l0.8,8.6l7.8,88H128v-31.9H85.7L82.8,85.2L82.8,85.2z"/>
	<path class="st2" d="M90,165.8H58l4.5,50.1l65.4,18.2l0.1,0v-33.2l-0.1,0l-35.6-9.6L90,165.8L90,165.8z"/>
	<path class="st2" d="M127.9,149.8h39.3l-3.7,41.4l-35.6,9.6v33.2l65.5-18.1l0.5-5.4l7.5-84.1l0.8-8.6h-74.2V149.8L127.9,149.8z"/>
	<path class="st2" d="M127.9,85.1L127.9,85.1l77.1,0.1l0.6-7.2l1.5-16.2l0.8-8.6h-80V85.1L127.9,85.1z"/>
</g>
</svg>
