<?xml version="1.0" encoding="utf-8"?>
<!-- Generator: Adobe Illustrator 24.0.0, SVG Export Plug-In . SVG Version: 6.00 Build 0)  -->
<svg version="1.1" id="Calque_1" xmlns="http://www.w3.org/2000/svg" xmlns:xlink="http://www.w3.org/1999/xlink" x="0px" y="0px"
	 viewBox="0 0 391 202" style="enable-background:new 0 0 391 202;" xml:space="preserve">
<style type="text/css">
	.st0{fill:#29363C;}
	.st1{fill:#E9EFEF;}
	.st2{fill-rule:evenodd;clip-rule:evenodd;fill:#29363C;}
	.st3{fill-rule:evenodd;clip-rule:evenodd;fill:#E9EFEF;}
</style>
<g transform="translate(0.738281, 121.593)">
	<path class="st0" d="M0,62.2h12.8V11.5l19.9,44.2c2.3,5.4,5.6,7.2,11.9,7.2c6.3,0,9.4-1.9,11.7-7.2l19.9-44.2v50.7H89V11.6
		c0-4.9-2-7.3-6.1-8.6c-9.8-3-16.3-0.4-19.3,6.2L44.2,52.8L25.3,9.2C22.5,2.6,15.8,0,6.1,3C2,4.3,0,6.7,0,11.6V62.2z"/>
</g>
<g transform="translate(100.444, 142.416)">
	<path class="st0" d="M0,0.1h12.8v27.9c-0.1,1.5,0.5,5.1,7.5,5.2c3.6,0.1,27.7,0,27.9,0V0h12.9c0.1,0,0,45.4,0,45.6
		c0.1,11.2-13.9,13.6-20.3,13.8H0.3v-8.6c0.1,0,40.5,0,40.6,0c8.3-0.9,7.3-5,7.3-6.4V41H20.9C8.2,40.9,0.1,35.3,0,29
		C0,28.4,0.3,0.4,0,0.1z"/>
</g>
<g transform="translate(171.496, 124.557)">
	<path class="st1" d="M0,59.3h36.9c4.3,0,8.5-0.9,11.9-2.5c5.6-2.6,8.3-6,8.3-10.5v-9.4c0-3.7-3.1-7.2-9.1-9.5
		c-3.2-1.2-7.2-1.9-11-1.9H21.4c-5.2,0-7.7-1.6-8.3-5C13,20.1,13,19.8,13,19.3v-5.8c0-0.3,0-0.7,0.1-1.1c0.6-2.6,2-3.4,6.5-3.8
		c0.4,0,0.9-0.1,1.2-0.1h36.7V0H21.5c-5.2,0-7.9,0.3-10.4,1.1c-7.7,2.4-11,6.2-11,12.8v7.5c0,5.8,6.5,10.7,17.5,11.9
		c1.2,0.1,2.5,0.2,3.7,0.2h13.3c0.5,0,1,0,1.4,0.1c4.1,0.3,5.8,1.1,7,2.6c0.7,0.7,1,1.5,1,2.3v7.5c0,0.9-0.6,2.1-1.9,3
		c-1.1,1-3,1.6-5.4,1.8c-0.5,0-0.9,0.1-1.4,0.1H0V59.3z"/>
</g>
<g transform="translate(308.656, 124.557)">
	<path class="st1" d="M0,44.4c0,8.8,6.5,13.7,19.8,14.7c1.2,0.1,2.5,0.2,3.7,0.2h33.5v-8.6H23.2c-7.5,0-10.4-1.9-10.4-6.4V0H0V44.4z
		"/>
</g>
<g transform="translate(236.74, 124.666)">
	<path class="st1" d="M0,44.7V14.2C0,6.4,5.4,1.7,16.2,0.2C17.3,0.1,18.6,0,19.7,0H44c1.2,0,2.4,0.1,3.6,0.2
		c10.8,1.5,16.2,6.2,16.2,13.9v30.5c0,6.3-2.3,9.7-7.6,11.9L68.9,68H53.9l-10.2-9.2l-10.3,0.7H19.7c-2.4,0-4.8-0.3-7.5-1.1
		C4,56.1,0,51.8,0,44.7z M13.9,44c0,0.4,0.1,0.8,0.2,1.3c0.7,3.5,4.1,5.5,9.2,5.5h11.7l-10.7-9.7h14.9l9.3,8.4
		c1.7-0.9,2.9-2.3,3.3-4.1c0.1-0.4,0.1-0.8,0.1-1.2V14.9c0-0.3,0-0.7-0.1-1.2c-0.7-3.3-4.1-5.2-9-5.2H23.3c-5.7,0-9.4,2.5-9.4,6.4
		V44z"/>
</g>
<g transform="translate(241.59, -4.64258)">
	<path class="st0" d="M135.3,115c-7.9-0.2-13.9,0.5-19.1,2.7c-1.5,0.6-3.8,0.6-4,2.5c0.8,0.8,0.9,2.1,1.6,3.1c1.2,2,3.3,4.7,5.2,6.1
		c2,1.5,4.1,3.2,6.3,4.5c3.9,2.4,8.2,3.7,11.9,6.1c2.2,1.4,4.4,3.1,6.5,4.7c1.1,0.8,1.8,2,3.1,2.5c0-0.1,0-0.1,0-0.2
		c-0.7-0.9-0.9-2.2-1.6-3.1c-1-1-1.9-1.9-2.9-2.9c-2.9-3.8-6.5-7.1-10.3-9.9c-3.1-2.2-9.9-5.2-11.2-8.8c-0.1-0.1-0.1-0.2-0.2-0.2
		c2.2-0.2,4.7-1,6.7-1.6c3.4-0.9,6.4-0.7,9.9-1.6c1.6-0.4,3.1-0.9,4.7-1.3c0-0.3,0-0.6,0-0.9c-1.8-1.8-3-4.2-4.9-5.8
		c-5-4.3-10.5-8.6-16.2-12.1c-3.1-2-7-3.3-10.3-4.9c-1.1-0.6-3.1-0.9-3.8-1.8c-1.7-2.2-2.7-5-4-7.6c-2.8-5.4-5.6-11.4-8.1-17.1
		c-1.7-3.9-2.8-7.7-4.9-11.2C79.3,39.2,68.3,29.1,51.3,19.1c-3.6-2.1-8-2.9-12.6-4c-2.5-0.1-4.9-0.3-7.4-0.4
		c-1.5-0.6-3.1-2.5-4.5-3.4C21.2,7.7,6.8,0,2.6,10.2C0,16.6,6.6,22.9,8.9,26.1c1.6,2.3,3.8,4.8,4.9,7.4c0.8,1.7,0.9,3.4,1.6,5.2
		c1.6,4.4,3.1,9.2,5.2,13.2c1.1,2.1,2.2,4.2,3.6,6.1c0.8,1.1,2.2,1.6,2.5,3.4c-1.4,1.9-1.5,5-2.2,7.4c-3.5,11.1-2.2,24.8,2.9,33
		c1.6,2.5,5.3,7.9,10.3,5.8c4.4-1.8,3.4-7.4,4.7-12.3c0.3-1.1,0.1-1.9,0.7-2.7c0,0.1,0,0.1,0,0.2c1.3,2.7,2.7,5.4,4,8.1
		c3,4.8,8.3,9.8,12.8,13.2c2.3,1.8,4.2,4.8,7.2,5.8c0-0.1,0-0.1,0-0.2c-0.1,0-0.2,0-0.2,0c-0.6-0.9-1.5-1.3-2.2-2
		c-1.8-1.7-3.7-3.9-5.2-5.8c-4.1-5.6-7.7-11.6-11-18c-1.6-3-2.9-6.4-4.3-9.4c-0.5-1.2-0.5-3-1.6-3.6c-1.5,2.3-3.6,4.1-4.7,6.7
		c-1.8,4.3-2,9.4-2.7,14.8c-0.4,0.1-0.2,0-0.5,0.2c-3.1-0.8-4.2-4-5.4-6.7c-2.9-7-3.5-18.2-0.9-26.3c0.7-2.1,3.7-8.6,2.5-10.5
		c-0.6-1.9-2.5-3-3.6-4.5c-1.3-1.8-2.7-4.2-3.6-6.3c-2.4-5.4-3.5-11.6-6.1-17.1c-1.2-2.6-3.3-5.3-4.9-7.6C10.9,21,8.8,19.1,7.3,16
		c-0.5-1.1-1.2-2.9-0.4-4c0.2-0.8,0.6-1.1,1.3-1.3c1.3-1,4.9,0.3,6.3,0.9c3.6,1.5,6.6,2.9,9.7,4.9c1.5,1,2.9,2.8,4.7,3.4
		c0.7,0,1.3,0,2,0c3.2,0.7,6.7,0.2,9.7,1.1c5.2,1.6,9.9,4.1,14.1,6.7c12.9,8.2,23.5,19.8,30.8,33.7c1.2,2.2,1.7,4.4,2.7,6.7
		c2.1,4.8,4.7,9.7,6.7,14.4c2.1,4.7,4.1,9.4,7,13.2c1.5,2,7.4,3.1,10.1,4.3c1.9,0.8,5,1.6,6.7,2.7c3.4,2,6.7,4.5,9.9,6.7
		C130.1,110.5,135,113,135.3,115z"/>
</g>
<g transform="translate(272.504, 24.8027)">
	<path class="st2" d="M4,0C2.4,0,1.2,0.2,0,0.5c0,0.1,0,0.2,0,0.2c0.1,0,0.2,0,0.2,0c0.8,1.6,2.2,2.7,3.1,4c0.7,1.6,1.5,3.1,2.2,4.7
		c0.1-0.1,0.2-0.1,0.2-0.2c1.4-1,2-2.5,2-4.9C7.3,3.7,7.2,3,6.7,2.3C6.1,1.3,4.8,0.8,4,0z"/>
</g>
<g transform="translate(371.609, 165.56)">
	<path class="st3" d="M0,9.5c0,5.7,4.5,9.5,9.5,9.5s9.5-3.8,9.5-9.5c0-5.7-4.5-9.5-9.5-9.5S0,3.8,0,9.5z M16.8,9.5
		c0,4.3-3.3,7.5-7.3,7.5c-4.1,0-7.3-3.2-7.3-7.5S5.4,2,9.5,2C13.5,2,16.8,5.2,16.8,9.5z M12,14.9h2.1L11,10.1c1.7-0.2,2.9-1,2.9-3
		c0-2.2-1.4-3.1-4.1-3.1H5.7v10.8h1.8v-4.7h1.7L12,14.9z M7.5,8.7V5.6h2.1C10.7,5.6,12,5.8,12,7c0,1.5-1.2,1.6-2.5,1.6H7.5z"/>
</g>
</svg>
