{
    "asset" : {
        "generator" : "Khronos glTF Blender I/O v1.4.40",
        "version" : "2.0"
    },
    "scene" : 0,
    "scenes" : [
        {
            "name" : "Scene",
            "nodes" : [
                0
            ]
        }
    ],
    "nodes" : [
        {
            "mesh" : 0,
            "name" : "iceberg",
            "rotation" : [
                -1,
                0,
                0,
                1.9470718370939721e-07
            ],
            "scale" : [
                0.6873498558998108,
                0.6873498558998108,
                0.6873498558998108
            ]
        }
    ],
    "materials" : [
        {
            "alphaMode" : "BLEND",
            "doubleSided" : true,
            "name" : "Ice",
            "pbrMetallicRoughness" : {}
        }
    ],
    "meshes" : [
        {
            "name" : "Plane_002Shape",
            "primitives" : [
                {
                    "attributes" : {
                        "POSITION" : 0,
                        "NORMAL" : 1,
                        "TEXCOORD_0" : 2,
                        "COLOR_0" : 3
                    },
                    "indices" : 4,
                    "material" : 0
                }
            ]
        }
    ],
    "accessors" : [
        {
            "bufferView" : 0,
            "componentType" : 5126,
            "count" : 10581,
            "max" : [
                8.480741500854492,
                15.642129898071289,
                8.651806831359863
            ],
            "min" : [
                -8.056493759155273,
                -10.948517799377441,
                -7.770878314971924
            ],
            "type" : "VEC3"
        },
        {
            "bufferView" : 1,
            "componentType" : 5126,
            "count" : 10581,
            "type" : "VEC3"
        },
        {
            "bufferView" : 2,
            "componentType" : 5126,
            "count" : 10581,
            "type" : "VEC2"
        },
        {
            "bufferView" : 3,
            "componentType" : 5123,
            "count" : 10581,
            "normalized" : true,
            "type" : "VEC4"
        },
        {
            "bufferView" : 4,
            "componentType" : 5123,
            "count" : 16716,
            "type" : "SCALAR"
        }
    ],
    "bufferViews" : [
        {
            "buffer" : 0,
            "byteLength" : 126972,
            "byteOffset" : 0
        },
        {
            "buffer" : 0,
            "byteLength" : 126972,
            "byteOffset" : 126972
        },
        {
            "buffer" : 0,
            "byteLength" : 84648,
            "byteOffset" : 253944
        },
        {
            "buffer" : 0,
            "byteLength" : 84648,
            "byteOffset" : 338592
        },
        {
            "buffer" : 0,
            "byteLength" : 33432,
            "byteOffset" : 423240
        }
    ],
    "buffers" : [
        {
            "byteLength" : 456672,
            "uri" : "data:application/octet-stream;base64,"
        }
    ]
}
